<svg width="38" height="38" viewBox="0 0 38 38" fill="none" xmlns="http://www.w3.org/2000/svg">
<g clip-path="url(#clip0_360_48)">
<path d="M18.88 37.76C29.3071 37.76 37.76 29.3071 37.76 18.88C37.76 8.45286 29.3071 0 18.88 0C8.45286 0 0 8.45286 0 18.88C0 29.3071 8.45286 37.76 18.88 37.76Z" fill="#6DA544"/>
<path d="M18.88 7.38782L34.4765 18.88L18.88 30.3722L3.28351 18.88L18.88 7.38782Z" fill="#FFDA44"/>
<path d="M18.88 25.447C22.5068 25.447 25.4469 22.5068 25.4469 18.88C25.4469 15.2532 22.5068 12.3131 18.88 12.3131C15.2532 12.3131 12.3131 15.2532 12.3131 18.88C12.3131 22.5068 15.2532 25.447 18.88 25.447Z" fill="#F0F0F0"/>
<path d="M15.5965 18.4696C14.4546 18.4696 13.3525 18.6433 12.3152 18.9656C12.3611 22.5528 15.2819 25.447 18.88 25.447C21.1049 25.447 23.0699 24.3395 24.2578 22.6469C22.2255 20.1027 19.0984 18.4696 15.5965 18.4696Z" fill="#0052B4"/>
<path d="M25.3253 20.1382C25.4043 19.7308 25.447 19.3105 25.447 18.88C25.447 15.2532 22.5069 12.3131 18.8801 12.3131C16.1739 12.3131 13.8508 13.9504 12.8454 16.2882C13.7341 16.104 14.6542 16.007 15.5967 16.007C19.4108 16.007 22.8613 17.5924 25.3253 20.1382Z" fill="#0052B4"/>
</g>
<defs>
<clipPath id="clip0_360_48">
<rect width="37.76" height="37.76" fill="white"/>
</clipPath>
</defs>
</svg>
