<svg width="346" height="346" viewBox="0 0 346 346" fill="none" xmlns="http://www.w3.org/2000/svg">
  <path d="M155.229 19.5798C161.189 3.47342 183.97 3.47338 189.93 19.5798L221.222 104.145C224.615 113.315 231.845 120.544 241.014 123.937L325.58 155.229C341.686 161.189 341.686 183.97 325.58 189.93L241.014 221.222C231.845 224.615 224.615 231.845 221.222 241.014L189.93 325.58C183.971 341.686 161.189 341.686 155.229 325.58L123.937 241.014C120.544 231.845 113.315 224.615 104.145 221.222L19.5798 189.93C3.47342 183.971 3.47338 161.189 19.5798 155.229L104.145 123.937C113.315 120.544 120.544 113.315 123.937 104.145L155.229 19.5798Z" fill="#D6FF00"/>
</svg>
