<svg width="38" height="38" viewBox="0 0 38 38" fill="none" xmlns="http://www.w3.org/2000/svg">
<g clip-path="url(#clip0_360_40)">
<path d="M18.88 37.76C29.3071 37.76 37.76 29.3071 37.76 18.88C37.76 8.45286 29.3071 0 18.88 0C8.45286 0 0 8.45286 0 18.88C0 29.3071 8.45286 37.76 18.88 37.76Z" fill="#F0F0F0"/>
<path d="M18.0591 18.8801H37.76C37.76 17.176 37.5328 15.5252 37.1096 13.9548H18.0591V18.8801Z" fill="#D80027"/>
<path d="M18.0591 9.02962H34.9889C33.8332 7.14368 32.3554 5.47671 30.6325 4.10437H18.0591V9.02962Z" fill="#D80027"/>
<path d="M18.88 37.76C23.3233 37.76 27.4074 36.2242 30.6325 33.6556H7.12747C10.3526 36.2242 14.4366 37.76 18.88 37.76Z" fill="#D80027"/>
<path d="M2.77107 28.7304H34.9889C35.9168 27.2164 36.6363 25.5615 37.1096 23.8052H0.650391C1.12364 25.5615 1.84322 27.2164 2.77107 28.7304Z" fill="#D80027"/>
<path d="M8.74557 2.94838H10.4661L8.86571 4.11105L9.47702 5.99233L7.87672 4.82967L6.27642 5.99233L6.80447 4.36711C5.3954 5.54084 4.16038 6.91598 3.14263 8.44821H3.69392L2.67521 9.18829C2.5165 9.45305 2.36428 9.72202 2.2184 9.99497L2.70485 11.4922L1.79729 10.8328C1.57169 11.3107 1.36533 11.7995 1.17985 12.2984L1.71579 13.948H3.69392L2.09354 15.1107L2.70485 16.992L1.10455 15.8293L0.145951 16.5258C0.0500025 17.2971 0 18.0827 0 18.88H18.88C18.88 8.45293 18.88 7.22366 18.88 0C15.1503 0 11.6735 1.08191 8.74557 2.94838ZM9.47702 16.992L7.87672 15.8293L6.27642 16.992L6.88773 15.1107L5.28736 13.948H7.26548L7.87672 12.0668L8.48796 13.948H10.4661L8.86571 15.1107L9.47702 16.992ZM8.86571 9.61088L9.47702 11.4922L7.87672 10.3295L6.27642 11.4922L6.88773 9.61088L5.28736 8.44821H7.26548L7.87672 6.56692L8.48796 8.44821H10.4661L8.86571 9.61088ZM16.2492 16.992L14.6489 15.8293L13.0486 16.992L13.6599 15.1107L12.0595 13.948H14.0376L14.6489 12.0668L15.2601 13.948H17.2383L15.6379 15.1107L16.2492 16.992ZM15.6379 9.61088L16.2492 11.4922L14.6489 10.3295L13.0486 11.4922L13.6599 9.61088L12.0595 8.44821H14.0376L14.6489 6.56692L15.2601 8.44821H17.2383L15.6379 9.61088ZM15.6379 4.11105L16.2492 5.99233L14.6489 4.82967L13.0486 5.99233L13.6599 4.11105L12.0595 2.94838H14.0376L14.6489 1.06709L15.2601 2.94838H17.2383L15.6379 4.11105Z" fill="#0052B4"/>
</g>
<defs>
<clipPath id="clip0_360_40">
<rect width="37.76" height="37.76" fill="white"/>
</clipPath>
</defs>
</svg>
